<?xml version="1.0" encoding="utf-8"?>
<!-- Generator: Adobe Illustrator 27.0.0, SVG Export Plug-In . SVG Version: 6.00 Build 0)  -->
<svg version="1.1" id="Layer_1" xmlns="http://www.w3.org/2000/svg" xmlns:xlink="http://www.w3.org/1999/xlink" x="0px" y="0px"
	 viewBox="0 0 300 130" style="enable-background:new 0 0 300 130;" xml:space="preserve">
<style type="text/css">
	.st0{fill:none;stroke:#FFFFFF;stroke-width:3;stroke-linecap:round;stroke-linejoin:round;stroke-miterlimit:10;}
	.st1{fill:#FFFFFF;stroke:#FFFFFF;stroke-width:5;stroke-linejoin:round;stroke-miterlimit:3.8637;}
	
		.st2{fill-rule:evenodd;clip-rule:evenodd;fill:#FFFFFF;stroke:#FFFFFF;stroke-width:5;stroke-linejoin:round;stroke-miterlimit:3.8637;}
	.st3{fill:#231F20;}
	.st4{fill-rule:evenodd;clip-rule:evenodd;fill:#FFFFFF;}
	.st5{fill-rule:evenodd;clip-rule:evenodd;fill:#0066B2;}
	.st6{fill:#0066B2;}
	.st7{fill:none;stroke:#231F20;stroke-width:1.5;stroke-miterlimit:10;}
	.st8{fill:#FFFFFF;stroke:#FFFFFF;stroke-width:4.8341;stroke-linejoin:round;stroke-miterlimit:3.8637;}
	
		.st9{fill-rule:evenodd;clip-rule:evenodd;fill:#FFFFFF;stroke:#FFFFFF;stroke-width:4.8341;stroke-linejoin:round;stroke-miterlimit:3.8637;}
</style>
<g>
	<line class="st0" x1="113.5" y1="82.3" x2="290" y2="82.3"/>
	<g>
		<path class="st0" d="M123,106.5l0.1-10.4H123l-2.3,10.4h-2.2l-2.2-10.4h-0.1l0.1,10.4h-2.8V91.3h3.9l2.2,9.8h0.1l2.2-9.8h4.2v15.2
			H123z"/>
		<path class="st0" d="M134.9,106.5l-0.6-2.8h-3.1l-0.6,2.8h-3.1l3.4-15.2h3.9l3.3,15.2H134.9z M132.8,94.6L132.8,94.6l-1.2,6.5h2.4
			L132.8,94.6z"/>
		<path class="st0" d="M139.5,106.5V91.3h3.2v12h3.7v3.2H139.5z"/>
		<path class="st0" d="M154.1,106.5l-0.6-2.8h-3.1l-0.6,2.8h-3.1l3.4-15.2h3.9l3.3,15.2H154.1z M152.1,94.6L152.1,94.6l-1.2,6.5h2.4
			L152.1,94.6z"/>
		<path class="st0" d="M163.9,101v5.5h-3.1V101l-3.5-9.7h3.4l1.7,6.3h0l1.7-6.3h3.3L163.9,101z"/>
		<path class="st0" d="M174.3,94.9c-0.2-0.3-0.5-0.5-0.8-0.7c-0.3-0.2-0.6-0.2-1-0.2c-0.4,0-0.7,0.1-0.9,0.4
			c-0.3,0.2-0.4,0.7-0.4,1.2c0,0.5,0.1,0.8,0.4,1.1c0.3,0.3,0.7,0.6,1.3,0.9c0.3,0.2,0.6,0.4,1,0.6c0.4,0.2,0.7,0.5,0.9,0.9
			c0.3,0.3,0.5,0.8,0.7,1.2c0.2,0.5,0.3,1.1,0.3,1.7c0,0.8-0.1,1.5-0.4,2.2c-0.2,0.6-0.6,1.1-0.9,1.6s-0.9,0.7-1.4,0.9
			c-0.5,0.2-1.1,0.3-1.6,0.3c-0.8,0-1.6-0.2-2.3-0.5c-0.7-0.3-1.2-0.7-1.6-1.2l1.6-2.6c0.3,0.3,0.6,0.6,1,0.8s0.8,0.3,1.2,0.3
			c0.4,0,0.7-0.1,1-0.4c0.3-0.3,0.4-0.7,0.4-1.1c0-0.5-0.2-0.9-0.5-1.2s-0.8-0.6-1.4-0.9c-0.4-0.2-0.7-0.4-1.1-0.7
			c-0.3-0.2-0.6-0.5-0.9-0.9s-0.4-0.7-0.6-1.2c-0.1-0.5-0.2-1-0.2-1.6c0-0.8,0.1-1.6,0.4-2.2s0.6-1.1,1-1.5c0.4-0.4,0.9-0.7,1.4-0.9
			s1-0.3,1.5-0.3c0.8,0,1.4,0.1,2,0.4c0.6,0.3,1.1,0.6,1.5,1.1L174.3,94.9z"/>
		<path class="st0" d="M177.8,106.5V91.3h3.1v15.2H177.8z"/>
		<path class="st0" d="M189.8,106.5l-0.6-2.8h-3.1l-0.6,2.8h-3.1l3.4-15.2h3.9l3.3,15.2H189.8z M187.7,94.6L187.7,94.6l-1.2,6.5h2.4
			L187.7,94.6z"/>
		<path class="st0" d="M200.4,106.5l-3.2-9.3h-0.1l0.1,9.3h-2.8V91.3h3.4l3.2,9.4h0.1l-0.1-9.4h2.7v15.2H200.4z"/>
		<path class="st0" d="M216.9,106.5l-3.2-9.3h-0.1l0.1,9.3h-2.8V91.3h3.4l3.2,9.4h0.1l-0.1-9.4h2.7v15.2H216.9z"/>
		<path class="st0" d="M229,106.5l-0.6-2.8h-3.1l-0.6,2.8h-3.1l3.4-15.2h3.9l3.3,15.2H229z M226.9,94.6L226.9,94.6l-1.2,6.5h2.4
			L226.9,94.6z"/>
		<path class="st0" d="M238,94.2v12.3H235V94.2h-2.5v-2.9h8.1v2.9H238z"/>
		<path class="st0" d="M242,106.5V91.3h3.1v15.2H242z"/>
		<path class="st0" d="M257.9,98.9c0,1.2-0.1,2.3-0.4,3.3s-0.6,1.8-1,2.6c-0.5,0.7-1,1.2-1.7,1.6c-0.7,0.4-1.4,0.6-2.2,0.6
			s-1.6-0.2-2.2-0.6s-1.2-0.9-1.7-1.6s-0.8-1.6-1.1-2.6c-0.2-1-0.4-2.1-0.4-3.3c0-1.2,0.1-2.3,0.4-3.3c0.2-1,0.6-1.8,1.1-2.5
			s1-1.2,1.7-1.6s1.4-0.6,2.2-0.6c0.8,0,1.6,0.2,2.2,0.6s1.2,0.9,1.7,1.6c0.5,0.7,0.8,1.5,1,2.5C257.7,96.6,257.9,97.7,257.9,98.9z
			 M254.6,98.9c0-0.7-0.1-1.3-0.1-1.8s-0.2-1.1-0.4-1.5c-0.2-0.4-0.4-0.7-0.6-1c-0.3-0.2-0.6-0.3-0.9-0.3c-0.4,0-0.7,0.1-0.9,0.3
			c-0.3,0.2-0.5,0.6-0.7,1c-0.2,0.4-0.3,0.9-0.4,1.5s-0.1,1.2-0.1,1.8c0,0.7,0,1.3,0.1,1.8s0.2,1.1,0.4,1.5c0.2,0.4,0.4,0.8,0.7,1
			c0.3,0.2,0.6,0.4,0.9,0.4c0.4,0,0.7-0.1,0.9-0.4c0.3-0.2,0.5-0.6,0.6-1c0.2-0.4,0.3-0.9,0.4-1.5S254.6,99.5,254.6,98.9z"/>
		<path class="st0" d="M265.9,106.5l-3.2-9.3h-0.1l0.1,9.3H260V91.3h3.4l3.2,9.4h0.1l-0.1-9.4h2.7v15.2H265.9z"/>
		<path class="st0" d="M278.1,106.5l-0.6-2.8h-3.1l-0.6,2.8h-3.1l3.4-15.2h3.9l3.3,15.2H278.1z M276,94.6L276,94.6l-1.2,6.5h2.4
			L276,94.6z"/>
		<path class="st0" d="M282.7,106.5V91.3h3.2v12h3.7v3.2H282.7z"/>
		<path class="st0" d="M119,122.6l-0.4-2.1h-2.3l-0.4,2.1h-2.3l2.5-11.3h2.9l2.5,11.3H119z M117.5,113.8L117.5,113.8l-0.9,4.8h1.8
			L117.5,113.8z"/>
		<path class="st0" d="M126.6,122.6l-2.4-6.9h0l0.1,6.9h-2.1v-11.3h2.6l2.4,7h0l0-7h2v11.3H126.6z"/>
		<path class="st0" d="M130.7,122.6v-11.3h2.3v11.3H130.7z"/>
		<path class="st0" d="M141.7,122.6l0.1-7.8h-0.1l-1.7,7.8h-1.6l-1.7-7.8h0l0.1,7.8h-2.1v-11.3h2.9l1.6,7.3h0.1l1.6-7.3h3.1v11.3
			H141.7z"/>
		<path class="st0" d="M150.1,122.6l-0.4-2.1h-2.3l-0.4,2.1h-2.3l2.5-11.3h2.9l2.5,11.3H150.1z M148.6,113.8L148.6,113.8l-0.9,4.8
			h1.8L148.6,113.8z"/>
		<path class="st0" d="M153.2,122.6v-11.3h2.4v8.9h2.7v2.4H153.2z"/>
		<path class="st0" d="M170.7,122.6h-2.5L167,115h0l-1.2,7.6h-2.5l-1.9-11.3h2.4l1.1,7.9h0.1l1.1-7.9h2.2l1.2,7.9h0l1-7.9h2.2
			L170.7,122.6z"/>
		<path class="st0" d="M173.5,122.6v-11.3h5v2.2h-2.7v2.2h2.5v2.1h-2.5v2.4h2.9v2.3H173.5z"/>
		<path class="st0" d="M179.7,122.6v-11.3h2.4v8.9h2.7v2.4H179.7z"/>
		<path class="st0" d="M188,113.6v2.3h2.4v2.2H188v4.5h-2.4v-11.3h5v2.3H188z"/>
		<path class="st0" d="M196.2,122.6l-0.4-2.1h-2.3l-0.4,2.1h-2.3l2.5-11.3h2.9l2.5,11.3H196.2z M194.7,113.8L194.7,113.8l-0.9,4.8
			h1.8L194.7,113.8z"/>
		<path class="st0" d="M203.6,122.6l-1.4-4.5h-0.7v4.5h-2.2v-11.3h3.3c1,0,1.8,0.3,2.3,0.8s0.8,1.4,0.8,2.5c0,0.4,0,0.8-0.1,1.1
			c-0.1,0.3-0.2,0.6-0.3,0.8s-0.3,0.4-0.5,0.6c-0.2,0.2-0.3,0.2-0.5,0.3l1.8,5H203.6z M203.5,114.9c0-0.3,0-0.5-0.1-0.7
			s-0.2-0.3-0.3-0.4c-0.1-0.1-0.2-0.2-0.4-0.2c-0.1,0-0.3-0.1-0.4-0.1h-0.7v2.8h0.7c0.3,0,0.6-0.1,0.9-0.3
			C203.4,115.8,203.5,115.4,203.5,114.9z"/>
		<path class="st0" d="M207,122.6v-11.3h5v2.2h-2.7v2.2h2.5v2.1h-2.5v2.4h2.9v2.3H207z"/>
		<path class="st0" d="M218.6,113.6v2.3h2.4v2.2h-2.4v4.5h-2.4v-11.3h5v2.3H218.6z"/>
		<path class="st0" d="M229.7,116.9c0,0.9-0.1,1.7-0.3,2.4c-0.2,0.7-0.4,1.4-0.8,1.9s-0.8,0.9-1.2,1.2s-1,0.4-1.6,0.4
			s-1.2-0.1-1.6-0.4c-0.5-0.3-0.9-0.7-1.2-1.2c-0.3-0.5-0.6-1.2-0.8-1.9s-0.3-1.6-0.3-2.4c0-0.9,0.1-1.7,0.3-2.4
			c0.2-0.7,0.4-1.3,0.8-1.9c0.3-0.5,0.8-0.9,1.2-1.2c0.5-0.3,1-0.4,1.7-0.4c0.6,0,1.2,0.1,1.6,0.4c0.5,0.3,0.9,0.7,1.2,1.2
			c0.3,0.5,0.6,1.1,0.8,1.9C229.6,115.2,229.7,116,229.7,116.9z M227.4,116.9c0-0.5,0-0.9-0.1-1.4s-0.2-0.8-0.3-1.1
			s-0.3-0.6-0.5-0.7c-0.2-0.2-0.4-0.3-0.7-0.3s-0.5,0.1-0.7,0.3c-0.2,0.2-0.4,0.4-0.5,0.7c-0.1,0.3-0.2,0.7-0.3,1.1
			s-0.1,0.9-0.1,1.4s0,0.9,0.1,1.4c0.1,0.4,0.2,0.8,0.3,1.1c0.1,0.3,0.3,0.6,0.5,0.7c0.2,0.2,0.4,0.3,0.7,0.3s0.5-0.1,0.7-0.3
			c0.2-0.2,0.4-0.4,0.5-0.7c0.1-0.3,0.2-0.7,0.3-1.1C227.3,117.9,227.4,117.4,227.4,116.9z"/>
		<path class="st0" d="M237.5,120.2c-0.1,0.5-0.3,1-0.6,1.4c-0.3,0.4-0.6,0.7-1.1,1c-0.4,0.2-1,0.3-1.6,0.3s-1.2-0.1-1.6-0.3
			c-0.4-0.2-0.8-0.6-1.1-1c-0.3-0.4-0.5-0.9-0.6-1.4s-0.2-1.1-0.2-1.8v-7.1h2.3v6.9c0,0.3,0,0.6,0.1,0.9c0,0.3,0.1,0.5,0.2,0.7
			s0.2,0.3,0.4,0.5c0.1,0.1,0.3,0.2,0.6,0.2s0.4-0.1,0.6-0.2s0.3-0.3,0.4-0.5c0.1-0.2,0.1-0.4,0.2-0.7s0.1-0.6,0.1-0.9v-6.9h2.3v7.1
			C237.7,119.1,237.6,119.7,237.5,120.2z"/>
		<path class="st0" d="M243.6,122.6l-2.4-6.9h0l0.1,6.9h-2.1v-11.3h2.6l2.4,7h0l0-7h2v11.3H243.6z"/>
		<path class="st0" d="M254.8,117c0,0.8-0.1,1.6-0.2,2.3s-0.4,1.3-0.8,1.8c-0.4,0.5-0.8,0.9-1.3,1.1c-0.5,0.3-1.2,0.4-1.9,0.4h-2.9
			v-11.3h2.9c0.7,0,1.4,0.1,1.9,0.4c0.5,0.3,1,0.7,1.3,1.1s0.6,1.1,0.8,1.8C254.7,115.4,254.8,116.1,254.8,117z M252.4,117
			c0-1.1-0.2-2-0.5-2.6c-0.4-0.6-0.8-0.9-1.4-0.9H250v6.8h0.6c0.6,0,1-0.3,1.4-0.9C252.3,118.9,252.4,118.1,252.4,117z"/>
		<path class="st0" d="M260.5,122.6l-0.4-2.1h-2.3l-0.4,2.1h-2.3l2.5-11.3h2.9l2.5,11.3H260.5z M259,113.8L259,113.8l-0.9,4.8h1.8
			L259,113.8z"/>
		<path class="st0" d="M266.9,113.5v9.1h-2.3v-9.1h-1.9v-2.2h6v2.2H266.9z"/>
		<path class="st0" d="M269.4,122.6v-11.3h2.3v11.3H269.4z"/>
		<path class="st0" d="M280.8,116.9c0,0.9-0.1,1.7-0.3,2.4s-0.4,1.4-0.8,1.9s-0.8,0.9-1.2,1.2s-1,0.4-1.6,0.4s-1.2-0.1-1.6-0.4
			s-0.9-0.7-1.2-1.2s-0.6-1.2-0.8-1.9s-0.3-1.6-0.3-2.4c0-0.9,0.1-1.7,0.3-2.4s0.4-1.3,0.8-1.9c0.3-0.5,0.8-0.9,1.2-1.2
			c0.5-0.3,1-0.4,1.7-0.4c0.6,0,1.2,0.1,1.6,0.4s0.9,0.7,1.2,1.2s0.6,1.1,0.8,1.9C280.7,115.2,280.8,116,280.8,116.9z M278.5,116.9
			c0-0.5,0-0.9-0.1-1.4s-0.2-0.8-0.3-1.1c-0.1-0.3-0.3-0.6-0.5-0.7c-0.2-0.2-0.4-0.3-0.7-0.3s-0.5,0.1-0.7,0.3
			c-0.2,0.2-0.4,0.4-0.5,0.7c-0.1,0.3-0.2,0.7-0.3,1.1s-0.1,0.9-0.1,1.4s0,0.9,0.1,1.4c0.1,0.4,0.2,0.8,0.3,1.1s0.3,0.6,0.5,0.7
			c0.2,0.2,0.4,0.3,0.7,0.3s0.5-0.1,0.7-0.3s0.4-0.4,0.5-0.7c0.1-0.3,0.2-0.7,0.3-1.1C278.4,117.9,278.5,117.4,278.5,116.9z"/>
		<path class="st0" d="M286.5,122.6l-2.4-6.9h0l0.1,6.9H282v-11.3h2.5l2.4,7h0l0-7h2v11.3H286.5z"/>
	</g>
	<g>
		<path class="st0" d="M120.4,17.4V23h-3.3v-5.6l-3.7-9.9h3.6l1.8,6.4h0l1.8-6.4h3.5L120.4,17.4z"/>
		<path class="st0" d="M131.8,22.9l-0.6-2.8h-3.3l-0.6,2.8H124l3.6-15.5h4.2l3.6,15.5H131.8z M129.6,10.8L129.6,10.8l-1.3,6.6h2.5
			L129.6,10.8z"/>
		<path class="st0" d="M142,17.4V23h-3.3v-5.6L135,7.5h3.6l1.8,6.4h0l1.8-6.4h3.5L142,17.4z"/>
		<path class="st0" d="M153.4,22.9l-0.6-2.8h-3.3l-0.6,2.8h-3.3l3.6-15.5h4.2l3.6,15.5H153.4z M151.1,10.8L151.1,10.8l-1.3,6.6h2.5
			L151.1,10.8z"/>
		<path class="st0" d="M164.2,11.2c-0.2-0.3-0.5-0.5-0.9-0.7s-0.7-0.2-1-0.2c-0.4,0-0.7,0.1-1,0.4c-0.3,0.2-0.4,0.7-0.4,1.2
			c0,0.5,0.1,0.9,0.5,1.1c0.3,0.3,0.8,0.6,1.4,0.9c0.3,0.2,0.7,0.4,1.1,0.6s0.7,0.5,1,0.9s0.6,0.8,0.8,1.3c0.2,0.5,0.3,1.1,0.3,1.7
			c0,0.8-0.1,1.6-0.4,2.2c-0.2,0.6-0.6,1.2-1,1.6c-0.4,0.4-0.9,0.7-1.5,0.9c-0.6,0.2-1.1,0.3-1.7,0.3c-0.9,0-1.7-0.2-2.4-0.5
			c-0.7-0.4-1.3-0.8-1.8-1.2l1.7-2.6c0.3,0.4,0.7,0.6,1.1,0.8c0.4,0.2,0.8,0.3,1.3,0.3c0.4,0,0.7-0.1,1-0.4s0.4-0.7,0.4-1.2
			c0-0.5-0.2-0.9-0.5-1.2c-0.3-0.3-0.8-0.6-1.5-1c-0.4-0.2-0.8-0.4-1.1-0.7c-0.4-0.2-0.7-0.6-0.9-0.9c-0.3-0.4-0.5-0.8-0.6-1.2
			c-0.1-0.5-0.2-1-0.2-1.7c0-0.9,0.1-1.6,0.4-2.2s0.6-1.1,1.1-1.5c0.4-0.4,0.9-0.7,1.5-0.9c0.5-0.2,1.1-0.3,1.6-0.3
			c0.8,0,1.5,0.1,2.2,0.4c0.6,0.3,1.2,0.6,1.6,1.1L164.2,11.2z"/>
		<path class="st0" d="M174.3,22.9l-0.6-2.8h-3.3l-0.6,2.8h-3.3L170,7.5h4.2l3.6,15.5H174.3z M172.1,10.8L172.1,10.8l-1.3,6.6h2.5
			L172.1,10.8z"/>
		<path class="st0" d="M185.4,22.9l-3.4-9.4h-0.1L182,23h-3V7.5h3.7l3.4,9.6h0.1l-0.1-9.6h2.9v15.5H185.4z"/>
		<path class="st0" d="M204.4,22.9l-3.1-7.2h-0.1v7.2h-3.4V7.5h3.4v6.4h0.1l3-6.4h3.7l-3.8,7.1l4,8.4L204.4,22.9L204.4,22.9z"/>
		<path class="st0" d="M209.7,22.9V7.5h7.1v3.1h-3.9v3h3.6v2.9h-3.6v3.3h4.2v3.1H209.7z"/>
		<path class="st0" d="M228.3,18.5c0,0.8-0.1,1.5-0.4,2.1s-0.6,1-1,1.4c-0.4,0.3-0.9,0.6-1.4,0.7s-1.1,0.2-1.6,0.2H219V7.5h4.4
			c0.5,0,0.9,0.1,1.5,0.1c0.5,0.1,1,0.3,1.4,0.6c0.4,0.3,0.8,0.7,1.1,1.2c0.3,0.5,0.4,1.2,0.4,2c0,0.9-0.2,1.6-0.5,2.2
			s-0.8,0.9-1.3,1.2v0c0.3,0.1,0.6,0.2,0.8,0.4c0.3,0.2,0.5,0.4,0.8,0.7c0.2,0.3,0.4,0.7,0.5,1.1C228.2,17.5,228.3,18,228.3,18.5z
			 M224.8,12c0-0.6-0.2-1-0.5-1.3c-0.3-0.2-0.7-0.4-1.1-0.4h-1.1v3.4h1.1c0.4,0,0.8-0.1,1.1-0.4C224.7,13.1,224.8,12.6,224.8,12z
			 M225.1,18.2c0-0.4-0.1-0.6-0.2-0.9c-0.1-0.2-0.2-0.4-0.4-0.6c-0.2-0.1-0.4-0.3-0.6-0.3c-0.2-0.1-0.4-0.1-0.6-0.1h-1.2v3.8h1.2
			c0.5,0,0.9-0.1,1.2-0.5C224.9,19.3,225.1,18.8,225.1,18.2z"/>
		<path class="st0" d="M236.9,22.9l-0.6-2.8H233l-0.6,2.8H229l3.6-15.5h4.2l3.6,15.5H236.9z M234.7,10.8L234.7,10.8l-1.3,6.6h2.5
			L234.7,10.8z"/>
		<path class="st0" d="M247.3,21.9c-0.7,0.9-1.8,1.4-3.2,1.4c-1,0-1.9-0.3-2.6-0.9s-1.2-1.4-1.4-2.4l2.7-1.3
			c0.1,0.4,0.2,0.7,0.4,0.9s0.4,0.4,0.8,0.4c0.5,0,0.8-0.2,0.9-0.6c0.1-0.4,0.2-0.9,0.2-1.6V7.5h3.3v10.6
			C248.4,19.7,248,21,247.3,21.9z"/>
		<path class="st0" d="M250.9,22.9V7.5h3.4v15.5H250.9z"/>
		<path class="st0" d="M263.5,22.9l-3.1-7.2h-0.1v7.2h-3.4V7.5h3.4v6.4h0.1l3-6.4h3.7l-3.8,7.1l4,8.4L263.5,22.9L263.5,22.9z"/>
		<path class="st0" d="M275.3,22.9l-0.6-2.8h-3.3l-0.6,2.8h-3.3L271,7.5h4.2l3.6,15.5H275.3z M273.1,10.8L273.1,10.8l-1.3,6.6h2.5
			L273.1,10.8z"/>
		<path class="st0" d="M286.4,22.9l-3.4-9.4h-0.1L283,23h-3V7.5h3.7l3.4,9.6h0.1l-0.1-9.6h2.9v15.5H286.4z"/>
		<path class="st0" d="M120.2,42.3v-6H117v6h-3.1V27.9h3.1v5.4h3.2v-5.4h3.1v14.4H120.2z"/>
		<path class="st0" d="M131.8,42.3l-0.6-2.6h-3.1l-0.6,2.6h-3.1l3.3-14.4h3.9l3.3,14.4H131.8z M129.7,31L129.7,31l-1.2,6.1h2.3
			L129.7,31z"/>
		<path class="st0" d="M136.2,42.3V27.9h3.1v14.4H136.2z"/>
		<path class="st0" d="M153.2,42.3h-3.3l-1.7-9.6h0l-1.7,9.6h-3.3l-2.6-14.4h3.1l1.4,10h0.1l1.5-10h3l1.6,10h0.1l1.4-10h3
			L153.2,42.3z"/>
		<path class="st0" d="M163.2,42.3l-0.6-2.6h-3.1l-0.6,2.6H156l3.3-14.4h3.9l3.3,14.4H163.2z M161.2,31L161.2,31l-1.2,6.1h2.3
			L161.2,31z"/>
		<path class="st0" d="M173.6,42.3l-3.2-8.8h-0.1l0.1,8.8h-2.8V27.9h3.4l3.1,8.9h0.1l-0.1-8.9h2.7v14.4H173.6z"/>
		<path class="st0" d="M193.5,42.3l-2.9-6.7h-0.1v6.7h-3.1V27.9h3.1v6h0.1l2.8-6h3.5l-3.5,6.6l3.7,7.8L193.5,42.3L193.5,42.3z"/>
		<path class="st0" d="M198.4,42.3V27.9h6.6v2.9h-3.6v2.8h3.4v2.7h-3.4v3.1h3.9v2.9L198.4,42.3L198.4,42.3z"/>
		<path class="st0" d="M215.7,38.2c0,0.8-0.1,1.4-0.4,1.9s-0.6,0.9-0.9,1.3s-0.8,0.5-1.3,0.7c-0.5,0.1-1,0.2-1.5,0.2h-4.5V27.9h4.1
			c0.4,0,0.9,0,1.4,0.1c0.5,0.1,0.9,0.3,1.3,0.5c0.4,0.3,0.7,0.6,1,1.1c0.3,0.5,0.4,1.1,0.4,1.9c0,0.8-0.2,1.5-0.5,2
			c-0.3,0.5-0.7,0.9-1.2,1.1v0c0.3,0.1,0.5,0.2,0.8,0.4c0.3,0.2,0.5,0.4,0.7,0.7c0.2,0.3,0.4,0.6,0.5,1
			C215.6,37.2,215.7,37.7,215.7,38.2z M212.5,32.1c0-0.6-0.1-1-0.4-1.2c-0.3-0.2-0.6-0.4-1-0.4h-1v3.1h1.1c0.4,0,0.7-0.1,1-0.4
			S212.5,32.7,212.5,32.1z M212.7,37.9c0-0.3-0.1-0.6-0.1-0.8c-0.1-0.2-0.2-0.4-0.4-0.5s-0.3-0.2-0.5-0.3s-0.4-0.1-0.6-0.1H210v3.5
			h1.2c0.4,0,0.8-0.1,1.1-0.4C212.6,38.9,212.7,38.5,212.7,37.9z"/>
		<path class="st0" d="M223.7,42.3l-0.6-2.6H220l-0.6,2.6h-3.1l3.3-14.4h3.9l3.3,14.4H223.7z M221.6,31L221.6,31l-1.2,6.1h2.3
			L221.6,31z"/>
		<path class="st0" d="M234,42.3l-3.2-8.8h-0.1l0.1,8.8h-2.8V27.9h3.4l3.1,8.9h0.1l-0.1-8.9h2.7v14.4H234z"/>
		<path class="st0" d="M246.9,42.3c-0.6,0.2-1.4,0.3-2.2,0.3c-0.9,0-1.6-0.2-2.3-0.5c-0.7-0.4-1.2-0.9-1.7-1.5
			c-0.5-0.7-0.8-1.4-1.1-2.4c-0.2-0.9-0.4-1.9-0.4-3.1c0-1.1,0.1-2.2,0.4-3.1c0.2-0.9,0.6-1.7,1.1-2.4s1-1.2,1.7-1.5
			c0.6-0.4,1.4-0.5,2.2-0.5c0.9,0,1.7,0.2,2.3,0.5c0.6,0.3,1.1,0.8,1.5,1.2l-1.7,2.4c-0.5-0.7-1.1-1-1.9-1c-0.4,0-0.8,0.1-1.1,0.4
			s-0.6,0.6-0.8,1c-0.2,0.4-0.4,0.9-0.5,1.4s-0.1,1.1-0.1,1.7c0,0.6,0.1,1.2,0.1,1.7s0.2,1,0.4,1.4s0.4,0.7,0.8,1
			c0.3,0.2,0.7,0.4,1.1,0.4c0.5,0,0.8-0.1,1.1-0.3v-2.7h-1.5v-2.8h4.2v7.7C248,41.8,247.5,42.1,246.9,42.3z"/>
		<path class="st0" d="M256.2,31.3c-0.2-0.3-0.5-0.5-0.8-0.7s-0.6-0.2-1-0.2c-0.4,0-0.7,0.1-0.9,0.3c-0.3,0.2-0.4,0.6-0.4,1.1
			c0,0.4,0.1,0.8,0.4,1.1s0.7,0.5,1.3,0.8c0.3,0.2,0.6,0.4,1,0.6s0.7,0.5,0.9,0.8c0.3,0.3,0.5,0.7,0.7,1.2c0.2,0.5,0.3,1,0.3,1.6
			c0,0.8-0.1,1.5-0.4,2s-0.5,1.1-0.9,1.5c-0.4,0.4-0.9,0.7-1.4,0.9c-0.5,0.2-1.1,0.3-1.6,0.3c-0.8,0-1.6-0.2-2.2-0.5
			c-0.7-0.3-1.2-0.7-1.6-1.1l1.6-2.4c0.3,0.3,0.6,0.6,1,0.8c0.4,0.2,0.8,0.3,1.2,0.3c0.4,0,0.7-0.1,0.9-0.4s0.4-0.6,0.4-1.1
			c0-0.5-0.2-0.8-0.5-1.1c-0.3-0.3-0.8-0.6-1.4-0.9c-0.4-0.2-0.7-0.4-1.1-0.6s-0.6-0.5-0.9-0.8c-0.2-0.3-0.4-0.7-0.6-1.1
			c-0.1-0.4-0.2-1-0.2-1.5c0-0.8,0.1-1.5,0.4-2.1s0.6-1,1-1.4c0.4-0.4,0.9-0.6,1.4-0.8c0.5-0.2,1-0.3,1.5-0.3c0.8,0,1.4,0.1,2,0.4
			c0.6,0.3,1.1,0.6,1.5,1L256.2,31.3z"/>
		<path class="st0" d="M265.5,42.3l-0.6-2.6h-3.1l-0.6,2.6h-3.1l3.3-14.4h3.9l3.3,14.4H265.5z M263.5,31L263.5,31l-1.2,6.1h2.3
			L263.5,31z"/>
		<path class="st0" d="M276,42.3l-0.6-2.6h-3.1l-0.6,2.6h-3.1l3.3-14.4h3.9l3.3,14.4H276z M274,31L274,31l-1.2,6.1h2.3L274,31z"/>
		<path class="st0" d="M286.4,42.3l-3.2-8.8h-0.1l0.1,8.8h-2.8V27.9h3.4l3.1,8.9h0.1l-0.1-8.9h2.7v14.4H286.4z"/>
		<path class="st0" d="M130.5,74.2l0.2-18.4h-0.1l-4.1,18.4h-3.9l-3.9-18.4h-0.1l0.2,18.4h-5V47.4h6.9l3.9,17.2h0.1l3.8-17.2h7.4
			v26.8C135.9,74.2,130.5,74.2,130.5,74.2z"/>
		<path class="st0" d="M156.5,74.2l-1-4.9H150l-1,4.9h-5.5l5.9-26.8h6.9l5.9,26.8H156.5z M152.9,53.2h-0.1l-2.1,11.4h4.2L152.9,53.2
			z"/>
		<path class="st0" d="M169.9,74.2V47.4h5.6v21.2h6.5v5.6L169.9,74.2L169.9,74.2z"/>
		<path class="st0" d="M200.7,74.2l-1-4.9h-5.5l-1,4.9h-5.5l5.9-26.8h6.9l5.9,26.8H200.7z M197,53.2h-0.1l-2.1,11.4h4.2L197,53.2z"
			/>
		<path class="st0" d="M223,64.5v9.6h-5.4v-9.6l-6.1-17.1h5.9l2.9,11.1h0.1l3-11.1h5.8L223,64.5z"/>
		<path class="st0" d="M246.5,53.8c-0.4-0.5-0.9-0.9-1.4-1.2s-1.1-0.4-1.7-0.4c-0.6,0-1.2,0.2-1.7,0.6c-0.5,0.4-0.7,1.1-0.7,2.1
			c0,0.8,0.2,1.5,0.8,2c0.5,0.5,1.2,1,2.2,1.5c0.6,0.3,1.1,0.7,1.8,1.1c0.6,0.4,1.2,0.9,1.7,1.5c0.5,0.6,0.9,1.3,1.3,2.2
			c0.3,0.8,0.5,1.8,0.5,3c0,1.4-0.2,2.7-0.6,3.8s-1,2-1.7,2.7c-0.7,0.7-1.5,1.3-2.4,1.6c-0.9,0.4-1.9,0.6-2.9,0.6
			c-1.5,0-2.8-0.3-4-0.9c-1.2-0.6-2.2-1.3-2.9-2.1l2.8-4.5c0.5,0.6,1.1,1.1,1.8,1.5c0.7,0.4,1.4,0.6,2.1,0.6c0.7,0,1.2-0.2,1.7-0.7
			c0.5-0.5,0.7-1.2,0.7-2c0-0.9-0.3-1.6-0.8-2.1s-1.4-1.1-2.4-1.6c-0.7-0.3-1.3-0.7-1.9-1.2c-0.6-0.4-1.1-0.9-1.6-1.5
			c-0.4-0.6-0.8-1.3-1.1-2.1c-0.2-0.8-0.4-1.8-0.4-2.9c0-1.5,0.2-2.8,0.7-3.8c0.4-1.1,1-2,1.8-2.6s1.5-1.2,2.4-1.5
			c0.9-0.3,1.8-0.5,2.7-0.5c1.3,0,2.5,0.2,3.6,0.7c1.1,0.5,1.9,1.1,2.6,2L246.5,53.8z"/>
		<path class="st0" d="M257.8,74.2V47.4h5.5v26.8H257.8z"/>
		<path class="st0" d="M283.9,74.2l-1-4.9h-5.5l-1,4.9H271l5.9-26.8h6.9l5.9,26.8H283.9z M280.3,53.2h-0.1l-2.1,11.4h4.2L280.3,53.2
			z"/>
	</g>
	<g>
		<g>
			<rect x="13.7" y="107.1" class="st1" width="84.5" height="15.7"/>
			<path class="st2" d="M73.3,26.7c-2.4-5.3-6.1-9.8-10.7-13.2c-0.6-0.5-1.3-0.8-1.9-1.2l-0.3,1.8l-2.5-2.5c0.6,1.4,0.3,2.9,0.3,2.9
				c-2.8-3.2-1.8-4.5-1.8-4.5c-4.1-1.8-8.5-2.8-13.3-2.8C24.8,7.2,10,22.2,10,40.8c0,4.7,1,9.2,2.7,13.3c0,0,8.7-3.3,7.2-10.3
				c0,0-1.8-4.4-1.2-6.3c0.5-1.9,1.2-2.5,2.3-1.4c0,0,0.4,1.7-0.4,4.2c0,0-0.5,4.5,2.6,9.2c0,0,1.5,0.2,0.9-1.4
				c0,0-2.8-9.9-0.3-14.5c0,0,1-2.2,1.8-1.3c0,0,0.9-0.7-1.1,5.4c0,0-0.9,2.5,1.2,9.3c0,0-0.1,1.5,1.8,0.9c0,0,1.4-0.4,0.2-3
				c-0.3-1.2-0.5-2.4-0.5-3.7c0-9.2,7.3-16.6,16.3-16.6c6,0,11.1,3.2,13.9,8.1c0,0,1,1.9,2.1,0.5c0,0,1.2-0.1-0.4-2.3
				c0,0-5-6.4-8.5-7.6c0,0-1.3,0-0.6-1.4c0,0,0-1.4,2.6,0.1c0,0,4.4,2.1,9.6,9.8l1.5-0.8c0,0-3.3-5.2-6.9-8.6c0,0-1.9-1-0.7-1.7
				c0,0,0.8-0.8,2.7,0.7c0,0,6,6.2,6.7,7.6c0,0,0.1,1.5,2.3,0.5l1.4-0.7l0.2-1.5l1.2,0.8L73.3,26.7z"/>
			<path class="st2" d="M71.4,58.2L62.3,62c0,0-0.4,0.2-0.3,0.9l0.3,1l7-2.6c-6.1,7.9-15.6,13-26.2,13c-13,0-24.2-7.8-29.6-18.9
				c0,0,6.3-7.2,20.1-0.9c2.7,2.1,6.1,3.3,9.8,3.3c9,0,16.3-7.4,16.3-16.6c0-2.3-0.4-4.3-1.2-6.3L74,27.8c0.2,0.6,0.5,1.5,0.7,2.1
				l-9.3,5c0,0-0.8,0-0.7,0.9l0.7,1.6L75,32c0.1,0.6,0.5,1.3,0.6,1.9c0.1,0.7,0,1.6,0.1,2.4L65,41.4c0,0-0.5,0.2-0.2,0.8l0.7,1.2
				l10.6-4.8l0.2,3.6l-12.4,6.1l0.4,1.8l11.5-4.9c-0.2,1.8-0.2,3-0.6,4.7L63.5,55c0,0-0.2,0.3,0.1,1.2l0.3,1.2L74,53.1
				C73.3,54.9,72.5,56.5,71.4,58.2z"/>
			<path class="st1" d="M45.1,36.6c5.1,0,9.2,4.2,9.2,9.3s-4.1,9.3-9.2,9.3c-5.1,0-9.2-4.2-9.2-9.3S40,36.6,45.1,36.6z"/>
			<path class="st1" d="M39.9,105.2c0.8-8.9,8.1-16,17-16c8.8,0,16,6.8,17,15.5h15.2c0-17.4-14.3-31.5-32.4-31.5
				c-18.1,0-32.8,14.1-32.8,31.5L39.9,105.2z"/>
		</g>
		<g>
			<rect x="13.7" y="107.1" class="st3" width="84.5" height="15.7"/>
			<g>
				<path class="st4" d="M22,110h-4v0.3c0.9,0.1,1.2,0.2,1.2,1.3v6.3c0,1.1-0.3,1.2-1.2,1.3v0.3h7.6l0.7-2.5h-0.4
					c-0.8,1.9-1.7,1.9-3.8,1.9c-1.2,0-1.4,0-1.4-0.6v-6.8c0-1.1,0.4-1.2,1.3-1.3V110z"/>
				<path class="st4" d="M29.9,112.8c-1.9,0-3,1.6-3,3.3c0,1.9,1.3,3.4,3.1,3.4c2.1,0,3.1-2,3.1-3.4
					C33.1,114.1,31.8,112.8,29.9,112.8z M30.2,119.1c-1.7,0-2-2.6-2-3.7c0-1.5,0.8-2.2,1.7-2.2c1.3,0,2,1.6,2,3.3
					C31.8,118.6,30.9,119.1,30.2,119.1z"/>
				<path class="st4" d="M40.2,113h-2v0.2c0.3,0,0.7,0.1,0.7,0.5c0,0.5-1,2.7-1.5,4.1l-1.4-3.7c0-0.1-0.1-0.3-0.1-0.5
					c0-0.4,0.3-0.4,0.7-0.4V113h-2.8v0.2c0.3,0,0.6,0.1,0.8,0.5c0.5,1,1.9,4.3,2.2,5.2c0.2,0.6,0.2,0.7,0.4,0.7
					c0.1,0,0.2-0.3,0.4-0.7l1.8-4.6c0.3-0.8,0.4-1.1,0.9-1.1L40.2,113L40.2,113z"/>
				<path class="st4" d="M46.3,117.1c-0.3,0.5-0.9,1.5-2.2,1.5c-0.9,0-2.1-0.6-2.2-3.1h4.4c-0.2-1.9-1.2-2.6-2.5-2.6
					c-1.1,0-2.9,0.9-2.9,3.5c0,2,1.1,3.2,2.6,3.2c2,0,2.8-1.9,3-2.4L46.3,117.1z M41.9,115c0.2-1.2,0.8-1.6,1.5-1.6
					c1.1,0,1.2,1,1.3,1.6H41.9z"/>
				<path class="st4" d="M59.5,119.1c-0.6-0.1-0.8-0.2-1.3-1.2l-3.5-8.1h-0.3l-2.9,7c-0.3,0.6-0.7,1.7-1,2c-0.3,0.3-0.5,0.3-0.7,0.3
					v0.3h2.8v-0.3c-0.3,0-1,0-1-0.6c0-0.2,0-0.3,0.1-0.5l0.7-1.7h3.7l0.6,1.4c0.1,0.2,0.3,0.7,0.3,0.9c0,0.5-0.5,0.5-1,0.5v0.3h3.6
					L59.5,119.1L59.5,119.1z M52.6,115.7l1.6-3.9l1.6,3.9H52.6z"/>
				<path class="st4" d="M60,119.4h3.3v-0.2c-0.8-0.1-1.1-0.2-1.1-1v-8.5l-0.1,0c-0.8,0.2-1.5,0.4-2.2,0.6v0.2c0.2,0,0.3,0,0.5,0
					c0.5,0,0.6,0.2,0.6,0.9v6.8c0,0.8-0.2,1-1.1,1L60,119.4L60,119.4z"/>
				<path class="st4" d="M63.9,119.4h3.3v-0.2c-0.8-0.1-1.1-0.2-1.1-1v-8.5l-0.1,0c-0.8,0.2-1.5,0.4-2.2,0.6v0.2c0.2,0,0.3,0,0.5,0
					c0.6,0,0.6,0.2,0.6,0.9v6.8c0,0.8-0.2,1-1.1,1L63.9,119.4L63.9,119.4z"/>
				<path class="st4" d="M75.2,110h-4v0.3c0.9,0.1,1.2,0.2,1.2,1.3v6.3c0,1.1-0.3,1.2-1.2,1.3v0.3h7.6l0.7-2.5h-0.3
					c-0.8,1.9-1.7,1.9-3.8,1.9c-1.2,0-1.4,0-1.4-0.6v-6.8c0-1.1,0.3-1.2,1.3-1.3L75.2,110L75.2,110z"/>
				<path class="st4" d="M79.9,119.4h3.3v-0.2c-1-0.1-1-0.3-1-1.2v-5.1l-0.1,0c-0.7,0.3-1.4,0.5-2.2,0.8v0.2c0.2,0,0.4-0.1,0.6-0.1
					c0.2,0,0.5,0,0.5,0.9v3.3c0,1.1-0.2,1.2-1.1,1.2C79.9,119.2,79.9,119.4,79.9,119.4z M80.8,110.4c0,0.3,0.2,0.7,0.7,0.7
					c0.4,0,0.7-0.3,0.7-0.7c0-0.4-0.3-0.7-0.7-0.7C81,109.7,80.8,110.1,80.8,110.4z"/>
				<path class="st4" d="M87.9,113h-1.7v-1.7c0-0.5,0.1-1.3,0.8-1.3c0.7,0,0.7,1.1,1.3,1.1c0.3,0,0.6-0.2,0.6-0.6
					c0-0.5-0.6-0.9-1.4-0.9c-2.5,0-2.5,2.5-2.5,3.3h-1.2v0.5H85v4.5c0,1.1-0.2,1.2-1.2,1.3v0.2h3.7v-0.2c-1.3,0-1.3-0.4-1.3-1.3
					v-4.5h1.7L87.9,113L87.9,113z"/>
				<path class="st4" d="M94,117.1c-0.3,0.5-0.9,1.5-2.2,1.5c-0.9,0-2.1-0.6-2.2-3.1H94c-0.2-1.9-1.2-2.6-2.5-2.6
					c-1.1,0-2.9,0.9-2.9,3.5c0,2,1.1,3.2,2.6,3.2c2,0,2.8-1.9,3-2.4L94,117.1z M89.6,115c0.2-1.2,0.8-1.6,1.6-1.6
					c1.1,0,1.2,1,1.3,1.6H89.6z"/>
			</g>
			<g>
				<path class="st5" d="M73.3,26.7c-2.4-5.3-6.1-9.8-10.7-13.2c-0.6-0.4-1.3-0.8-1.9-1.2l-0.3,1.8l-2.5-2.5
					c0.6,1.4,0.3,2.9,0.3,2.9c-2.8-3.2-1.8-4.5-1.8-4.5c-4.1-1.8-8.5-2.8-13.3-2.8C24.8,7.2,10,22.2,10,40.8c0,4.7,1,9.2,2.7,13.3
					c0,0,8.7-3.3,7.2-10.3c0,0-1.8-4.4-1.2-6.3s1.2-2.5,2.3-1.4c0,0,0.4,1.7-0.4,4.2c0,0-0.5,4.5,2.6,9.2c0,0,1.5,0.2,0.9-1.4
					c0,0-2.8-9.9-0.3-14.5c0,0,1-2.2,1.8-1.3c0,0,0.9-0.7-1.1,5.4c0,0-0.9,2.5,1.2,9.3c0,0-0.1,1.5,1.8,0.9c0,0,1.3-0.4,0.2-3
					c-0.3-1.2-0.5-2.4-0.5-3.7c0-9.2,7.3-16.6,16.3-16.6c6,0,11.1,3.2,13.9,8.1c0,0,1,1.9,2.1,0.5c0,0,1.2-0.1-0.4-2.3
					c0,0-5-6.4-8.5-7.6c0,0-1.3,0-0.6-1.4c0,0,0-1.4,2.6,0.1c0,0,4.3,2.1,9.6,9.8l1.5-0.8c0,0-3.3-5.2-6.9-8.6c0,0-1.9-1-0.7-1.7
					c0,0,0.8-0.8,2.7,0.7c0,0,6,6.2,6.7,7.6c0,0,0.1,1.5,2.3,0.5l1.4-0.7l0.2-1.5l1.2,0.8L73.3,26.7z"/>
				<path class="st5" d="M71.4,58.2L62.3,62c0,0-0.4,0.2-0.3,0.9l0.3,1l7-2.6c-6.1,7.9-15.6,13-26.2,13c-13,0-24.2-7.8-29.6-18.9
					c0,0,6.3-7.2,20.1-0.9c2.7,2.1,6.1,3.3,9.8,3.3c9,0,16.3-7.4,16.3-16.6c0-2.3-0.4-4.3-1.2-6.3L74,27.8c0.2,0.6,0.5,1.5,0.7,2.1
					l-9.3,5c0,0-0.8,0-0.7,1l0.7,1.6L75,32c0.1,0.6,0.5,1.3,0.6,1.9c0.1,0.8,0,1.6,0.1,2.4L65,41.4c0,0-0.5,0.2-0.2,0.8l0.7,1.2
					l10.6-4.8l0.2,3.6l-12.4,6.1l0.4,1.8l11.5-4.9c-0.2,1.8-0.2,3-0.6,4.7L63.5,55c0,0-0.2,0.3,0.1,1.2l0.3,1.2L74,53
					C73.3,54.9,72.5,56.5,71.4,58.2z"/>
				<path class="st5" d="M45.1,36.6c5.1,0,9.2,4.2,9.2,9.3c0,5.2-4.1,9.3-9.2,9.3s-9.2-4.2-9.2-9.3C35.9,40.8,40,36.6,45.1,36.6z"/>
				<path class="st6" d="M39.9,105.2c0.8-8.9,8.1-16,17-16c8.8,0,16,6.8,17,15.5h15.2c0-17.4-14.3-31.5-32.4-31.5
					c-18.1,0-32.8,14.1-32.8,31.5L39.9,105.2z"/>
			</g>
		</g>
	</g>
	<line class="st7" x1="113.5" y1="82.3" x2="290" y2="82.3"/>
	<g>
		<path class="st6" d="M120.4,17.4V23h-3.3v-5.6l-3.7-9.9h3.6l1.8,6.4h0l1.8-6.4h3.5L120.4,17.4z"/>
		<path class="st6" d="M131.8,22.9l-0.6-2.8h-3.3l-0.6,2.8H124l3.6-15.5h4.2l3.6,15.5H131.8z M129.6,10.8L129.6,10.8l-1.3,6.6h2.5
			L129.6,10.8z"/>
		<path class="st6" d="M142,17.4V23h-3.3v-5.6L135,7.5h3.6l1.8,6.4h0l1.8-6.4h3.5L142,17.4z"/>
		<path class="st6" d="M153.4,22.9l-0.6-2.8h-3.3l-0.6,2.8h-3.3l3.6-15.5h4.2l3.6,15.5H153.4z M151.1,10.8L151.1,10.8l-1.3,6.6h2.5
			L151.1,10.8z"/>
		<path class="st6" d="M164.2,11.2c-0.2-0.3-0.5-0.5-0.9-0.7s-0.7-0.2-1-0.2c-0.4,0-0.7,0.1-1,0.4c-0.3,0.2-0.4,0.7-0.4,1.2
			c0,0.5,0.1,0.9,0.5,1.1c0.3,0.3,0.8,0.6,1.4,0.9c0.3,0.2,0.7,0.4,1.1,0.6s0.7,0.5,1,0.9s0.6,0.8,0.8,1.3c0.2,0.5,0.3,1.1,0.3,1.7
			c0,0.8-0.1,1.6-0.4,2.2c-0.2,0.6-0.6,1.2-1,1.6c-0.4,0.4-0.9,0.7-1.5,0.9c-0.6,0.2-1.1,0.3-1.7,0.3c-0.9,0-1.7-0.2-2.4-0.5
			c-0.7-0.4-1.3-0.8-1.8-1.2l1.7-2.6c0.3,0.4,0.7,0.6,1.1,0.8c0.4,0.2,0.8,0.3,1.3,0.3c0.4,0,0.7-0.1,1-0.4s0.4-0.7,0.4-1.2
			c0-0.5-0.2-0.9-0.5-1.2c-0.3-0.3-0.8-0.6-1.5-1c-0.4-0.2-0.8-0.4-1.1-0.7c-0.4-0.2-0.7-0.6-0.9-0.9c-0.3-0.4-0.5-0.8-0.6-1.2
			c-0.1-0.5-0.2-1-0.2-1.7c0-0.9,0.1-1.6,0.4-2.2s0.6-1.1,1.1-1.5c0.4-0.4,0.9-0.7,1.5-0.9c0.5-0.2,1.1-0.3,1.6-0.3
			c0.8,0,1.5,0.1,2.2,0.4c0.6,0.3,1.2,0.6,1.6,1.1L164.2,11.2z"/>
		<path class="st6" d="M174.3,22.9l-0.6-2.8h-3.3l-0.6,2.8h-3.3L170,7.5h4.2l3.6,15.5H174.3z M172.1,10.8L172.1,10.8l-1.3,6.6h2.5
			L172.1,10.8z"/>
		<path class="st6" d="M185.4,22.9l-3.4-9.4h-0.1L182,23h-3V7.5h3.7l3.4,9.6h0.1l-0.1-9.6h2.9v15.5H185.4z"/>
		<path class="st6" d="M204.4,22.9l-3.1-7.2h-0.1v7.2h-3.4V7.5h3.4v6.4h0.1l3-6.4h3.7l-3.8,7.1l4,8.4L204.4,22.9L204.4,22.9z"/>
		<path class="st6" d="M209.7,22.9V7.5h7.1v3.1h-3.9v3h3.6v2.9h-3.6v3.3h4.2v3.1H209.7z"/>
		<path class="st6" d="M228.3,18.5c0,0.8-0.1,1.5-0.4,2.1s-0.6,1-1,1.4c-0.4,0.3-0.9,0.6-1.4,0.7s-1.1,0.2-1.6,0.2H219V7.5h4.4
			c0.5,0,0.9,0.1,1.5,0.1c0.5,0.1,1,0.3,1.4,0.6c0.4,0.3,0.8,0.7,1.1,1.2c0.3,0.5,0.4,1.2,0.4,2c0,0.9-0.2,1.6-0.5,2.2
			s-0.8,0.9-1.3,1.2v0c0.3,0.1,0.6,0.2,0.8,0.4c0.3,0.2,0.5,0.4,0.8,0.7c0.2,0.3,0.4,0.7,0.5,1.1C228.2,17.5,228.3,18,228.3,18.5z
			 M224.8,12c0-0.6-0.2-1-0.5-1.3c-0.3-0.2-0.7-0.4-1.1-0.4h-1.1v3.4h1.1c0.4,0,0.8-0.1,1.1-0.4C224.7,13.1,224.8,12.6,224.8,12z
			 M225.1,18.2c0-0.4-0.1-0.6-0.2-0.9c-0.1-0.2-0.2-0.4-0.4-0.6c-0.2-0.1-0.4-0.3-0.6-0.3c-0.2-0.1-0.4-0.1-0.6-0.1h-1.2v3.8h1.2
			c0.5,0,0.9-0.1,1.2-0.5C224.9,19.3,225.1,18.8,225.1,18.2z"/>
		<path class="st6" d="M236.9,22.9l-0.6-2.8H233l-0.6,2.8H229l3.6-15.5h4.2l3.6,15.5H236.9z M234.7,10.8L234.7,10.8l-1.3,6.6h2.5
			L234.7,10.8z"/>
		<path class="st6" d="M247.3,21.9c-0.7,0.9-1.8,1.4-3.2,1.4c-1,0-1.9-0.3-2.6-0.9s-1.2-1.4-1.4-2.4l2.7-1.3
			c0.1,0.4,0.2,0.7,0.4,0.9s0.4,0.4,0.8,0.4c0.5,0,0.8-0.2,0.9-0.6c0.1-0.4,0.2-0.9,0.2-1.6V7.5h3.3v10.6
			C248.4,19.7,248,21,247.3,21.9z"/>
		<path class="st6" d="M250.9,22.9V7.5h3.4v15.5H250.9z"/>
		<path class="st6" d="M263.5,22.9l-3.1-7.2h-0.1v7.2h-3.4V7.5h3.4v6.4h0.1l3-6.4h3.7l-3.8,7.1l4,8.4L263.5,22.9L263.5,22.9z"/>
		<path class="st6" d="M275.3,22.9l-0.6-2.8h-3.3l-0.6,2.8h-3.3L271,7.5h4.2l3.6,15.5H275.3z M273.1,10.8L273.1,10.8l-1.3,6.6h2.5
			L273.1,10.8z"/>
		<path class="st6" d="M286.4,22.9l-3.4-9.4h-0.1L283,23h-3V7.5h3.7l3.4,9.6h0.1l-0.1-9.6h2.9v15.5H286.4z"/>
		<path class="st6" d="M120.2,42.3v-6H117v6h-3.1V27.9h3.1v5.4h3.2v-5.4h3.1v14.4H120.2z"/>
		<path class="st6" d="M131.8,42.3l-0.6-2.6h-3.1l-0.6,2.6h-3.1l3.3-14.4h3.9l3.3,14.4H131.8z M129.7,31L129.7,31l-1.2,6.1h2.3
			L129.7,31z"/>
		<path class="st6" d="M136.2,42.3V27.9h3.1v14.4H136.2z"/>
		<path class="st6" d="M153.2,42.3h-3.3l-1.7-9.6h0l-1.7,9.6h-3.3l-2.6-14.4h3.1l1.4,10h0.1l1.5-10h3l1.6,10h0.1l1.4-10h3
			L153.2,42.3z"/>
		<path class="st6" d="M163.2,42.3l-0.6-2.6h-3.1l-0.6,2.6H156l3.3-14.4h3.9l3.3,14.4H163.2z M161.2,31L161.2,31l-1.2,6.1h2.3
			L161.2,31z"/>
		<path class="st6" d="M173.6,42.3l-3.2-8.8h-0.1l0.1,8.8h-2.8V27.9h3.4l3.1,8.9h0.1l-0.1-8.9h2.7v14.4H173.6z"/>
		<path class="st6" d="M193.5,42.3l-2.9-6.7h-0.1v6.7h-3.1V27.9h3.1v6h0.1l2.8-6h3.5l-3.5,6.6l3.7,7.8L193.5,42.3L193.5,42.3z"/>
		<path class="st6" d="M198.4,42.3V27.9h6.6v2.9h-3.6v2.8h3.4v2.7h-3.4v3.1h3.9v2.9L198.4,42.3L198.4,42.3z"/>
		<path class="st6" d="M215.7,38.2c0,0.8-0.1,1.4-0.4,1.9s-0.6,0.9-0.9,1.3s-0.8,0.5-1.3,0.7c-0.5,0.1-1,0.2-1.5,0.2h-4.5V27.9h4.1
			c0.4,0,0.9,0,1.4,0.1c0.5,0.1,0.9,0.3,1.3,0.5c0.4,0.3,0.7,0.6,1,1.1c0.3,0.5,0.4,1.1,0.4,1.9c0,0.8-0.2,1.5-0.5,2
			c-0.3,0.5-0.7,0.9-1.2,1.1v0c0.3,0.1,0.5,0.2,0.8,0.4c0.3,0.2,0.5,0.4,0.7,0.7c0.2,0.3,0.4,0.6,0.5,1
			C215.6,37.2,215.7,37.7,215.7,38.2z M212.5,32.1c0-0.6-0.1-1-0.4-1.2c-0.3-0.2-0.6-0.4-1-0.4h-1v3.1h1.1c0.4,0,0.7-0.1,1-0.4
			S212.5,32.7,212.5,32.1z M212.7,37.9c0-0.3-0.1-0.6-0.1-0.8c-0.1-0.2-0.2-0.4-0.4-0.5s-0.3-0.2-0.5-0.3s-0.4-0.1-0.6-0.1H210v3.5
			h1.2c0.4,0,0.8-0.1,1.1-0.4C212.6,38.9,212.7,38.5,212.7,37.9z"/>
		<path class="st6" d="M223.7,42.3l-0.6-2.6H220l-0.6,2.6h-3.1l3.3-14.4h3.9l3.3,14.4H223.7z M221.6,31L221.6,31l-1.2,6.1h2.3
			L221.6,31z"/>
		<path class="st6" d="M234,42.3l-3.2-8.8h-0.1l0.1,8.8h-2.8V27.9h3.4l3.1,8.9h0.1l-0.1-8.9h2.7v14.4H234z"/>
		<path class="st6" d="M246.9,42.3c-0.6,0.2-1.4,0.3-2.2,0.3c-0.9,0-1.6-0.2-2.3-0.5c-0.7-0.4-1.2-0.9-1.7-1.5
			c-0.5-0.7-0.8-1.4-1.1-2.4c-0.2-0.9-0.4-1.9-0.4-3.1c0-1.1,0.1-2.2,0.4-3.1c0.2-0.9,0.6-1.7,1.1-2.4s1-1.2,1.7-1.5
			c0.6-0.4,1.4-0.5,2.2-0.5c0.9,0,1.7,0.2,2.3,0.5c0.6,0.3,1.1,0.8,1.5,1.2l-1.7,2.4c-0.5-0.7-1.1-1-1.9-1c-0.4,0-0.8,0.1-1.1,0.4
			s-0.6,0.6-0.8,1c-0.2,0.4-0.4,0.9-0.5,1.4s-0.1,1.1-0.1,1.7c0,0.6,0.1,1.2,0.1,1.7s0.2,1,0.4,1.4s0.4,0.7,0.8,1
			c0.3,0.2,0.7,0.4,1.1,0.4c0.5,0,0.8-0.1,1.1-0.3v-2.7h-1.5v-2.8h4.2v7.7C248,41.8,247.5,42.1,246.9,42.3z"/>
		<path class="st6" d="M256.2,31.3c-0.2-0.3-0.5-0.5-0.8-0.7s-0.6-0.2-1-0.2c-0.4,0-0.7,0.1-0.9,0.3c-0.3,0.2-0.4,0.6-0.4,1.1
			c0,0.4,0.1,0.8,0.4,1.1s0.7,0.5,1.3,0.8c0.3,0.2,0.6,0.4,1,0.6s0.7,0.5,0.9,0.8c0.3,0.3,0.5,0.7,0.7,1.2c0.2,0.5,0.3,1,0.3,1.6
			c0,0.8-0.1,1.5-0.4,2s-0.5,1.1-0.9,1.5c-0.4,0.4-0.9,0.7-1.4,0.9c-0.5,0.2-1.1,0.3-1.6,0.3c-0.8,0-1.6-0.2-2.2-0.5
			c-0.7-0.3-1.2-0.7-1.6-1.1l1.6-2.4c0.3,0.3,0.6,0.6,1,0.8c0.4,0.2,0.8,0.3,1.2,0.3c0.4,0,0.7-0.1,0.9-0.4s0.4-0.6,0.4-1.1
			c0-0.5-0.2-0.8-0.5-1.1c-0.3-0.3-0.8-0.6-1.4-0.9c-0.4-0.2-0.7-0.4-1.1-0.6s-0.6-0.5-0.9-0.8c-0.2-0.3-0.4-0.7-0.6-1.1
			c-0.1-0.4-0.2-1-0.2-1.5c0-0.8,0.1-1.5,0.4-2.1s0.6-1,1-1.4c0.4-0.4,0.9-0.6,1.4-0.8c0.5-0.2,1-0.3,1.5-0.3c0.8,0,1.4,0.1,2,0.4
			c0.6,0.3,1.1,0.6,1.5,1L256.2,31.3z"/>
		<path class="st6" d="M265.5,42.3l-0.6-2.6h-3.1l-0.6,2.6h-3.1l3.3-14.4h3.9l3.3,14.4H265.5z M263.5,31L263.5,31l-1.2,6.1h2.3
			L263.5,31z"/>
		<path class="st6" d="M276,42.3l-0.6-2.6h-3.1l-0.6,2.6h-3.1l3.3-14.4h3.9l3.3,14.4H276z M274,31L274,31l-1.2,6.1h2.3L274,31z"/>
		<path class="st6" d="M286.4,42.3l-3.2-8.8h-0.1l0.1,8.8h-2.8V27.9h3.4l3.1,8.9h0.1l-0.1-8.9h2.7v14.4H286.4z"/>
		<path class="st6" d="M130.5,74.2l0.2-18.4h-0.1l-4.1,18.4h-3.9l-3.9-18.4h-0.1l0.2,18.4h-5V47.4h6.9l3.9,17.2h0.1l3.8-17.2h7.4
			v26.8C135.9,74.2,130.5,74.2,130.5,74.2z"/>
		<path class="st6" d="M156.5,74.2l-1-4.9H150l-1,4.9h-5.5l5.9-26.8h6.9l5.9,26.8H156.5z M152.9,53.2h-0.1l-2.1,11.4h4.2L152.9,53.2
			z"/>
		<path class="st6" d="M169.9,74.2V47.4h5.6v21.2h6.5v5.6L169.9,74.2L169.9,74.2z"/>
		<path class="st6" d="M200.7,74.2l-1-4.9h-5.5l-1,4.9h-5.5l5.9-26.8h6.9l5.9,26.8H200.7z M197,53.2h-0.1l-2.1,11.4h4.2L197,53.2z"
			/>
		<path class="st6" d="M223,64.5v9.6h-5.4v-9.6l-6.1-17.1h5.9l2.9,11.1h0.1l3-11.1h5.8L223,64.5z"/>
		<path class="st6" d="M246.5,53.8c-0.4-0.5-0.9-0.9-1.4-1.2s-1.1-0.4-1.7-0.4c-0.6,0-1.2,0.2-1.7,0.6c-0.5,0.4-0.7,1.1-0.7,2.1
			c0,0.8,0.2,1.5,0.8,2c0.5,0.5,1.2,1,2.2,1.5c0.6,0.3,1.1,0.7,1.8,1.1c0.6,0.4,1.2,0.9,1.7,1.5c0.5,0.6,0.9,1.3,1.3,2.2
			c0.3,0.8,0.5,1.8,0.5,3c0,1.4-0.2,2.7-0.6,3.8s-1,2-1.7,2.7c-0.7,0.7-1.5,1.3-2.4,1.6c-0.9,0.4-1.9,0.6-2.9,0.6
			c-1.5,0-2.8-0.3-4-0.9c-1.2-0.6-2.2-1.3-2.9-2.1l2.8-4.5c0.5,0.6,1.1,1.1,1.8,1.5c0.7,0.4,1.4,0.6,2.1,0.6c0.7,0,1.2-0.2,1.7-0.7
			c0.5-0.5,0.7-1.2,0.7-2c0-0.9-0.3-1.6-0.8-2.1s-1.4-1.1-2.4-1.6c-0.7-0.3-1.3-0.7-1.9-1.2c-0.6-0.4-1.1-0.9-1.6-1.5
			c-0.4-0.6-0.8-1.3-1.1-2.1c-0.2-0.8-0.4-1.8-0.4-2.9c0-1.5,0.2-2.8,0.7-3.8c0.4-1.1,1-2,1.8-2.6s1.5-1.2,2.4-1.5
			c0.9-0.3,1.8-0.5,2.7-0.5c1.3,0,2.5,0.2,3.6,0.7c1.1,0.5,1.9,1.1,2.6,2L246.5,53.8z"/>
		<path class="st6" d="M257.8,74.2V47.4h5.5v26.8H257.8z"/>
		<path class="st6" d="M283.9,74.2l-1-4.9h-5.5l-1,4.9H271l5.9-26.8h6.9l5.9,26.8H283.9z M280.3,53.2h-0.1l-2.1,11.4h4.2L280.3,53.2
			z"/>
	</g>
	<g>
		<path class="st3" d="M123,106.5l0.1-10.4H123l-2.3,10.4h-2.2l-2.2-10.4h-0.1l0.1,10.4h-2.8V91.3h3.9l2.2,9.8h0.1l2.2-9.8h4.2v15.2
			H123z"/>
		<path class="st3" d="M134.9,106.5l-0.6-2.8h-3.1l-0.6,2.8h-3.1l3.4-15.2h3.9l3.3,15.2H134.9z M132.8,94.6L132.8,94.6l-1.2,6.5h2.4
			L132.8,94.6z"/>
		<path class="st3" d="M139.5,106.5V91.3h3.2v12h3.7v3.2H139.5z"/>
		<path class="st3" d="M154.1,106.5l-0.6-2.8h-3.1l-0.6,2.8h-3.1l3.4-15.2h3.9l3.3,15.2H154.1z M152.1,94.6L152.1,94.6l-1.2,6.5h2.4
			L152.1,94.6z"/>
		<path class="st3" d="M163.9,101v5.5h-3.1V101l-3.5-9.7h3.4l1.7,6.3h0l1.7-6.3h3.3L163.9,101z"/>
		<path class="st3" d="M174.3,94.9c-0.2-0.3-0.5-0.5-0.8-0.7c-0.3-0.2-0.6-0.2-1-0.2c-0.4,0-0.7,0.1-0.9,0.4
			c-0.3,0.2-0.4,0.7-0.4,1.2c0,0.5,0.1,0.8,0.4,1.1c0.3,0.3,0.7,0.6,1.3,0.9c0.3,0.2,0.6,0.4,1,0.6c0.4,0.2,0.7,0.5,0.9,0.9
			c0.3,0.3,0.5,0.8,0.7,1.2c0.2,0.5,0.3,1.1,0.3,1.7c0,0.8-0.1,1.5-0.4,2.2c-0.2,0.6-0.6,1.1-0.9,1.6s-0.9,0.7-1.4,0.9
			c-0.5,0.2-1.1,0.3-1.6,0.3c-0.8,0-1.6-0.2-2.3-0.5c-0.7-0.3-1.2-0.7-1.6-1.2l1.6-2.6c0.3,0.3,0.6,0.6,1,0.8s0.8,0.3,1.2,0.3
			c0.4,0,0.7-0.1,1-0.4c0.3-0.3,0.4-0.7,0.4-1.1c0-0.5-0.2-0.9-0.5-1.2s-0.8-0.6-1.4-0.9c-0.4-0.2-0.7-0.4-1.1-0.7
			c-0.3-0.2-0.6-0.5-0.9-0.9s-0.4-0.7-0.6-1.2c-0.1-0.5-0.2-1-0.2-1.6c0-0.8,0.1-1.6,0.4-2.2s0.6-1.1,1-1.5c0.4-0.4,0.9-0.7,1.4-0.9
			s1-0.3,1.5-0.3c0.8,0,1.4,0.1,2,0.4c0.6,0.3,1.1,0.6,1.5,1.1L174.3,94.9z"/>
		<path class="st3" d="M177.8,106.5V91.3h3.1v15.2H177.8z"/>
		<path class="st3" d="M189.8,106.5l-0.6-2.8h-3.1l-0.6,2.8h-3.1l3.4-15.2h3.9l3.3,15.2H189.8z M187.7,94.6L187.7,94.6l-1.2,6.5h2.4
			L187.7,94.6z"/>
		<path class="st3" d="M200.4,106.5l-3.2-9.3h-0.1l0.1,9.3h-2.8V91.3h3.4l3.2,9.4h0.1l-0.1-9.4h2.7v15.2H200.4z"/>
		<path class="st3" d="M216.9,106.5l-3.2-9.3h-0.1l0.1,9.3h-2.8V91.3h3.4l3.2,9.4h0.1l-0.1-9.4h2.7v15.2H216.9z"/>
		<path class="st3" d="M229,106.5l-0.6-2.8h-3.1l-0.6,2.8h-3.1l3.4-15.2h3.9l3.3,15.2H229z M226.9,94.6L226.9,94.6l-1.2,6.5h2.4
			L226.9,94.6z"/>
		<path class="st3" d="M238,94.2v12.3H235V94.2h-2.5v-2.9h8.1v2.9H238z"/>
		<path class="st3" d="M242,106.5V91.3h3.1v15.2H242z"/>
		<path class="st3" d="M257.9,98.9c0,1.2-0.1,2.3-0.4,3.3s-0.6,1.8-1,2.6c-0.5,0.7-1,1.2-1.7,1.6c-0.7,0.4-1.4,0.6-2.2,0.6
			s-1.6-0.2-2.2-0.6s-1.2-0.9-1.7-1.6s-0.8-1.6-1.1-2.6c-0.2-1-0.4-2.1-0.4-3.3c0-1.2,0.1-2.3,0.4-3.3c0.2-1,0.6-1.8,1.1-2.5
			s1-1.2,1.7-1.6s1.4-0.6,2.2-0.6c0.8,0,1.6,0.2,2.2,0.6s1.2,0.9,1.7,1.6c0.5,0.7,0.8,1.5,1,2.5C257.7,96.6,257.9,97.7,257.9,98.9z
			 M254.6,98.9c0-0.7-0.1-1.3-0.1-1.8s-0.2-1.1-0.4-1.5c-0.2-0.4-0.4-0.7-0.6-1c-0.3-0.2-0.6-0.3-0.9-0.3c-0.4,0-0.7,0.1-0.9,0.3
			c-0.3,0.2-0.5,0.6-0.7,1c-0.2,0.4-0.3,0.9-0.4,1.5s-0.1,1.2-0.1,1.8c0,0.7,0,1.3,0.1,1.8s0.2,1.1,0.4,1.5c0.2,0.4,0.4,0.8,0.7,1
			c0.3,0.2,0.6,0.4,0.9,0.4c0.4,0,0.7-0.1,0.9-0.4c0.3-0.2,0.5-0.6,0.6-1c0.2-0.4,0.3-0.9,0.4-1.5S254.6,99.5,254.6,98.9z"/>
		<path class="st3" d="M265.9,106.5l-3.2-9.3h-0.1l0.1,9.3H260V91.3h3.4l3.2,9.4h0.1l-0.1-9.4h2.7v15.2H265.9z"/>
		<path class="st3" d="M278.1,106.5l-0.6-2.8h-3.1l-0.6,2.8h-3.1l3.4-15.2h3.9l3.3,15.2H278.1z M276,94.6L276,94.6l-1.2,6.5h2.4
			L276,94.6z"/>
		<path class="st3" d="M282.7,106.5V91.3h3.2v12h3.7v3.2H282.7z"/>
		<path class="st3" d="M119,122.6l-0.4-2.1h-2.3l-0.4,2.1h-2.3l2.5-11.3h2.9l2.5,11.3H119z M117.5,113.8L117.5,113.8l-0.9,4.8h1.8
			L117.5,113.8z"/>
		<path class="st3" d="M126.6,122.6l-2.4-6.9h0l0.1,6.9h-2.1v-11.3h2.6l2.4,7h0l0-7h2v11.3H126.6z"/>
		<path class="st3" d="M130.7,122.6v-11.3h2.3v11.3H130.7z"/>
		<path class="st3" d="M141.7,122.6l0.1-7.8h-0.1l-1.7,7.8h-1.6l-1.7-7.8h0l0.1,7.8h-2.1v-11.3h2.9l1.6,7.3h0.1l1.6-7.3h3.1v11.3
			H141.7z"/>
		<path class="st3" d="M150.1,122.6l-0.4-2.1h-2.3l-0.4,2.1h-2.3l2.5-11.3h2.9l2.5,11.3H150.1z M148.6,113.8L148.6,113.8l-0.9,4.8
			h1.8L148.6,113.8z"/>
		<path class="st3" d="M153.2,122.6v-11.3h2.4v8.9h2.7v2.4H153.2z"/>
		<path class="st3" d="M170.7,122.6h-2.5L167,115h0l-1.2,7.6h-2.5l-1.9-11.3h2.4l1.1,7.9h0.1l1.1-7.9h2.2l1.2,7.9h0l1-7.9h2.2
			L170.7,122.6z"/>
		<path class="st3" d="M173.5,122.6v-11.3h5v2.2h-2.7v2.2h2.5v2.1h-2.5v2.4h2.9v2.3H173.5z"/>
		<path class="st3" d="M179.7,122.6v-11.3h2.4v8.9h2.7v2.4H179.7z"/>
		<path class="st3" d="M188,113.6v2.3h2.4v2.2H188v4.5h-2.4v-11.3h5v2.3H188z"/>
		<path class="st3" d="M196.2,122.6l-0.4-2.1h-2.3l-0.4,2.1h-2.3l2.5-11.3h2.9l2.5,11.3H196.2z M194.7,113.8L194.7,113.8l-0.9,4.8
			h1.8L194.7,113.8z"/>
		<path class="st3" d="M203.6,122.6l-1.4-4.5h-0.7v4.5h-2.2v-11.3h3.3c1,0,1.8,0.3,2.3,0.8s0.8,1.4,0.8,2.5c0,0.4,0,0.8-0.1,1.1
			c-0.1,0.3-0.2,0.6-0.3,0.8s-0.3,0.4-0.5,0.6c-0.2,0.2-0.3,0.2-0.5,0.3l1.8,5H203.6z M203.5,114.9c0-0.3,0-0.5-0.1-0.7
			s-0.2-0.3-0.3-0.4c-0.1-0.1-0.2-0.2-0.4-0.2c-0.1,0-0.3-0.1-0.4-0.1h-0.7v2.8h0.7c0.3,0,0.6-0.1,0.9-0.3
			C203.4,115.8,203.5,115.4,203.5,114.9z"/>
		<path class="st3" d="M207,122.6v-11.3h5v2.2h-2.7v2.2h2.5v2.1h-2.5v2.4h2.9v2.3H207z"/>
		<path class="st3" d="M218.6,113.6v2.3h2.4v2.2h-2.4v4.5h-2.4v-11.3h5v2.3H218.6z"/>
		<path class="st3" d="M229.7,116.9c0,0.9-0.1,1.7-0.3,2.4c-0.2,0.7-0.4,1.4-0.8,1.9s-0.8,0.9-1.2,1.2s-1,0.4-1.6,0.4
			s-1.2-0.1-1.6-0.4c-0.5-0.3-0.9-0.7-1.2-1.2c-0.3-0.5-0.6-1.2-0.8-1.9s-0.3-1.6-0.3-2.4c0-0.9,0.1-1.7,0.3-2.4
			c0.2-0.7,0.4-1.3,0.8-1.9c0.3-0.5,0.8-0.9,1.2-1.2c0.5-0.3,1-0.4,1.7-0.4c0.6,0,1.2,0.1,1.6,0.4c0.5,0.3,0.9,0.7,1.2,1.2
			c0.3,0.5,0.6,1.1,0.8,1.9C229.6,115.2,229.7,116,229.7,116.9z M227.4,116.9c0-0.5,0-0.9-0.1-1.4s-0.2-0.8-0.3-1.1
			s-0.3-0.6-0.5-0.7c-0.2-0.2-0.4-0.3-0.7-0.3s-0.5,0.1-0.7,0.3c-0.2,0.2-0.4,0.4-0.5,0.7c-0.1,0.3-0.2,0.7-0.3,1.1
			s-0.1,0.9-0.1,1.4s0,0.9,0.1,1.4c0.1,0.4,0.2,0.8,0.3,1.1c0.1,0.3,0.3,0.6,0.5,0.7c0.2,0.2,0.4,0.3,0.7,0.3s0.5-0.1,0.7-0.3
			c0.2-0.2,0.4-0.4,0.5-0.7c0.1-0.3,0.2-0.7,0.3-1.1C227.3,117.9,227.4,117.4,227.4,116.9z"/>
		<path class="st3" d="M237.5,120.2c-0.1,0.5-0.3,1-0.6,1.4c-0.3,0.4-0.6,0.7-1.1,1c-0.4,0.2-1,0.3-1.6,0.3s-1.2-0.1-1.6-0.3
			c-0.4-0.2-0.8-0.6-1.1-1c-0.3-0.4-0.5-0.9-0.6-1.4s-0.2-1.1-0.2-1.8v-7.1h2.3v6.9c0,0.3,0,0.6,0.1,0.9c0,0.3,0.1,0.5,0.2,0.7
			s0.2,0.3,0.4,0.5c0.1,0.1,0.3,0.2,0.6,0.2s0.4-0.1,0.6-0.2s0.3-0.3,0.4-0.5c0.1-0.2,0.1-0.4,0.2-0.7s0.1-0.6,0.1-0.9v-6.9h2.3v7.1
			C237.7,119.1,237.6,119.7,237.5,120.2z"/>
		<path class="st3" d="M243.6,122.6l-2.4-6.9h0l0.1,6.9h-2.1v-11.3h2.6l2.4,7h0l0-7h2v11.3H243.6z"/>
		<path class="st3" d="M254.8,117c0,0.8-0.1,1.6-0.2,2.3s-0.4,1.3-0.8,1.8c-0.4,0.5-0.8,0.9-1.3,1.1c-0.5,0.3-1.2,0.4-1.9,0.4h-2.9
			v-11.3h2.9c0.7,0,1.4,0.1,1.9,0.4c0.5,0.3,1,0.7,1.3,1.1s0.6,1.1,0.8,1.8C254.7,115.4,254.8,116.1,254.8,117z M252.4,117
			c0-1.1-0.2-2-0.5-2.6c-0.4-0.6-0.8-0.9-1.4-0.9H250v6.8h0.6c0.6,0,1-0.3,1.4-0.9C252.3,118.9,252.4,118.1,252.4,117z"/>
		<path class="st3" d="M260.5,122.6l-0.4-2.1h-2.3l-0.4,2.1h-2.3l2.5-11.3h2.9l2.5,11.3H260.5z M259,113.8L259,113.8l-0.9,4.8h1.8
			L259,113.8z"/>
		<path class="st3" d="M266.9,113.5v9.1h-2.3v-9.1h-1.9v-2.2h6v2.2H266.9z"/>
		<path class="st3" d="M269.4,122.6v-11.3h2.3v11.3H269.4z"/>
		<path class="st3" d="M280.8,116.9c0,0.9-0.1,1.7-0.3,2.4s-0.4,1.4-0.8,1.9s-0.8,0.9-1.2,1.2s-1,0.4-1.6,0.4s-1.2-0.1-1.6-0.4
			s-0.9-0.7-1.2-1.2s-0.6-1.2-0.8-1.9s-0.3-1.6-0.3-2.4c0-0.9,0.1-1.7,0.3-2.4s0.4-1.3,0.8-1.9c0.3-0.5,0.8-0.9,1.2-1.2
			c0.5-0.3,1-0.4,1.7-0.4c0.6,0,1.2,0.1,1.6,0.4s0.9,0.7,1.2,1.2s0.6,1.1,0.8,1.9C280.7,115.2,280.8,116,280.8,116.9z M278.5,116.9
			c0-0.5,0-0.9-0.1-1.4s-0.2-0.8-0.3-1.1c-0.1-0.3-0.3-0.6-0.5-0.7c-0.2-0.2-0.4-0.3-0.7-0.3s-0.5,0.1-0.7,0.3
			c-0.2,0.2-0.4,0.4-0.5,0.7c-0.1,0.3-0.2,0.7-0.3,1.1s-0.1,0.9-0.1,1.4s0,0.9,0.1,1.4c0.1,0.4,0.2,0.8,0.3,1.1s0.3,0.6,0.5,0.7
			c0.2,0.2,0.4,0.3,0.7,0.3s0.5-0.1,0.7-0.3s0.4-0.4,0.5-0.7c0.1-0.3,0.2-0.7,0.3-1.1C278.4,117.9,278.5,117.4,278.5,116.9z"/>
		<path class="st3" d="M286.5,122.6l-2.4-6.9h0l0.1,6.9H282v-11.3h2.5l2.4,7h0l0-7h2v11.3H286.5z"/>
	</g>
</g>
</svg>
